<svg xmlns="http://www.w3.org/2000/svg" viewBox="0 0 790.42 171.78"><defs><style>.a{fill:#6981ee;}</style></defs><title>ggb-logo</title><path class="a" d="M96.06,2.9A5.84,5.84,0,0,0,91,0l-56.62.2a5.93,5.93,0,0,0-5.09,2.94L0.79,52.08a5.84,5.84,0,0,0,0,5.84l28.14,48.74a5.84,5.84,0,0,0,5.07,2.9l56.62-.2a5.93,5.93,0,0,0,5.09-2.94l28.49-48.94a5.84,5.84,0,0,0,0-5.84ZM121,55.66L92.51,104.6a2.21,2.21,0,0,1-1.9,1.1l-56.62.2a2.18,2.18,0,0,1-1.89-1.08L4,56.07A2.18,2.18,0,0,1,4,53.9H4L32.46,5a2.21,2.21,0,0,1,1.9-1.1L91,3.66a2.18,2.18,0,0,1,1.89,1.08L121,53.48A2.18,2.18,0,0,1,121,55.66ZM50.67,34.21c4.34-2.51,6.62-6.71,5.07-9.38s-6.31-2.8-10.66-.3S38.47,31.24,40,33.91,46.32,36.72,50.67,34.21Zm58.7,11.38a1.51,1.51,0,0,0-2.6,0l-23,39.52a1.49,1.49,0,0,0,0,1.5l4.77,8.26a1.51,1.51,0,0,0,2.6,0l23-39.52a1.49,1.49,0,0,0,0-1.5ZM75.19,71.77L79.93,80a1.51,1.51,0,0,0,2.6,0l23-39.52a1.49,1.49,0,0,0,0-1.5l-5.41-9.38a1.51,1.51,0,0,0-2.62,0L75.18,70.31A1.49,1.49,0,0,0,75.19,71.77ZM71.3,65a1.51,1.51,0,0,0,2.62,0L96.24,24.3a1.49,1.49,0,0,0,0-1.46L90,12.07a1.51,1.51,0,0,0-2.62,0L65.07,52.81a1.49,1.49,0,0,0,0,1.46ZM60.86,56.78A1.49,1.49,0,0,0,59.6,56L13.08,55a1.51,1.51,0,0,0-1.35,2.25L35.85,99a1.49,1.49,0,0,0,1.3.74L83,99.62a1.51,1.51,0,0,0,1.31-2.25Zm119,23.32a32.14,32.14,0,0,0-17.26-4.73c-17.12,0-31.5,13.26-31.5,32.71,0,17.2,14.38,31,31.5,31a33.31,33.31,0,0,0,17.26-4.47v6c0,8.67-5.62,13.13-12.81,13.13-7.84,0-12.28-3.67-13.33-9.59H132.81c1,16.55,15,27.59,34.24,27.59,19.87,0,34-11.56,34-31.53V77.6H179.87v2.5Zm0,36.12a16.57,16.57,0,0,1-13.07,5.91c-8.63,0-14.9-7.1-14.9-14.05,0-9.2,6.27-15.37,14.9-15.37a16.57,16.57,0,0,1,13.07,5.91v17.61Zm63.45-40.06c-20,0-34.4,14.05-34.4,33.23,0,19.44,14.38,33.89,34.4,33.89s34.39-14.44,34.39-33.89C277.71,90.21,263.33,76.16,243.32,76.16Zm0.13,48.73c-8.63,0-14.39-6.84-14.39-15.37,0-8.28,5.76-15,14.39-15s14.25,6.7,14.25,15C257.7,118.06,251.95,124.89,243.44,124.89ZM330.35,80.1a32.14,32.14,0,0,0-17.26-4.73c-17.12,0-31.49,13.26-31.49,32.71,0,17.2,14.38,31,31.49,31a33.31,33.31,0,0,0,17.26-4.47v6c0,8.67-5.62,13.13-12.81,13.13-7.84,0-12.28-3.67-13.33-9.59H283.3c1,16.55,15,27.59,34.24,27.59,19.87,0,34-11.56,34-31.53V77.6H330.35v2.5Zm0,36.12a16.57,16.57,0,0,1-13.07,5.91c-8.63,0-14.9-7.1-14.9-14.05,0-9.2,6.27-15.37,14.9-15.37a16.57,16.57,0,0,1,13.07,5.91v17.61Zm63.94-40.06c-19.73,0-33.91,14.05-33.91,33.23,0,19.44,14.18,33.89,33.91,33.89s33.9-14.44,33.9-33.89C428.2,90.21,414,76.16,394.29,76.16Zm0.13,48.73c-8.51,0-14.18-6.84-14.18-15.37,0-8.28,5.67-15,14.18-15s14.05,6.7,14.05,15C408.47,118.06,402.8,124.89,394.42,124.89ZM474.1,76.35A30.68,30.68,0,0,0,457,81.21V48H436.14v93.32H457V138a30.67,30.67,0,0,0,17.12,4.86c16.86,0,31-14.33,31-33.38S491,76.35,474.1,76.35Zm-4.12,49a15.89,15.89,0,0,1-13-5.91V99.74a16,16,0,0,1,13-6c8.49,0,14.67,7.1,14.67,15.78C484.65,118.41,478.48,125.37,470,125.37Zm76.15-49.22c-19.58,0-33.66,14.05-33.66,33.23,0,19.44,14.08,33.89,33.66,33.89s33.66-14.44,33.66-33.89C579.8,90.21,565.72,76.16,546.13,76.16Zm0.13,48.73c-8.45,0-14.08-6.84-14.08-15.37,0-8.28,5.63-15,14.08-15s14,6.7,14,15C560.21,118.06,554.59,124.89,546.26,124.89ZM626.2,75.63a27.13,27.13,0,0,0-17.56,6.31V77.6H587.42v63.71h21.23V101.38c3.67-4.2,7.87-6.44,11.8-6.44,6.95,0,11.53,4.34,11.53,13.4v33h21.36V104.92C653.33,86.8,642.33,75.63,626.2,75.63Zm66.62,0.71c-20.22,0-33.66,13.91-33.66,33.18s13.83,33.32,34.57,33.32c15.65,0,27.79-8.26,30.79-21.38H703.65c-1.82,2.88-5.22,4.59-9.65,4.59-8.09,0-12.52-4.46-14.22-10.23h45.14l-0.13-.39a44.34,44.34,0,0,0,.39-7.22C725.18,89.07,711.22,76.34,692.82,76.34Zm-13.31,27c1.57-6.43,6.14-10.63,13.31-10.63,6.78,0,11.35,3.67,12.53,10.63H679.51Zm91.05-.94-12-2c-5-.92-6.57-2.89-6.57-5,0-2.5,2.5-4.6,8-4.6,5.92,0,10.39,2.24,10.78,7.09h18.94c-0.92-16.81-16.3-22.07-29.85-22.07-17,0-28.41,7.88-28.41,21.28,0,11.17,7.63,17.34,18.67,19.18l12.89,2.24c4.21,0.65,6.18,2.36,6.18,4.47,0,2.76-3.42,4.47-9.07,4.47-6.71,0-11.31-2.5-12.23-8L729,119.37c1.32,16.95,14.86,23.9,31.56,23.9s29.85-6.83,29.85-21.54C790.42,110.44,782.53,104.66,770.56,102.43Z" transform="translate(0 0)"/></svg>